<svg xmlns="http://www.w3.org/2000/svg" viewBox="0 0 254.243 50.123">
  <defs>
    <style>
      .cls-1 {
        fill: #333;
      }

      .cls-2, .cls-4 {
        fill: #b661ff;
      }

      .cls-3 {
        fill: #790097;
      }

      .cls-4 {
        opacity: 0.4;
      }
    </style>
  </defs>
  <g id="Group_18" data-name="Group 18" transform="translate(-1015.996 414.321)">
    <g id="XMLID_5_" transform="translate(1090.038 -400.954)">
      <path id="XMLID_126_" class="cls-1" d="M926.321,395.083a7.221,7.221,0,0,1,2.9,4.265,11.278,11.278,0,0,1-.264,6.112l-.264.923a16.65,16.65,0,0,1-3.21,6.111,16.236,16.236,0,0,1-5.276,4.221,13.966,13.966,0,0,1-6.287,1.539H905.7l7.035-24.754h8.046A10.177,10.177,0,0,1,926.321,395.083ZM922.5,405.459c.616-2.2.659-3.913.132-5.056s-1.627-1.715-3.3-1.715h-1.759L913.438,413.2h1.935a5.753,5.753,0,0,0,4.133-1.715,11.186,11.186,0,0,0,2.726-5.1Z" transform="translate(-905.7 -393.236)"/>
      <path id="XMLID_129_" class="cls-1" d="M957.7,418.354l7.035-24.754h6.287l-7.035,24.754Z" transform="translate(-934.837 -393.292)"/>
      <path id="XMLID_131_" class="cls-1" d="M1002.752,394.743a5.229,5.229,0,0,1,2.506,3.078,7.323,7.323,0,0,1-.088,4.441,10.1,10.1,0,0,1-2.374,4.221,11.953,11.953,0,0,1-4.221,2.858,14.607,14.607,0,0,1-5.408,1.011h-3.649l-2.286,8H980.9l7.035-24.754h9.981A9.826,9.826,0,0,1,1002.752,394.743Zm-5.408,9.673a3.7,3.7,0,0,0,1.407-2.11,3.142,3.142,0,0,0-.132-2.55,2.284,2.284,0,0,0-2.2-1.011h-3.649l-1.847,6.419h3.649A4.149,4.149,0,0,0,997.344,404.416Z" transform="translate(-947.836 -393.292)"/>
      <path id="XMLID_134_" class="cls-1" d="M1056.718,412.554a15.664,15.664,0,0,1-5.1,4.265,12.9,12.9,0,0,1-6.068,1.495,8.62,8.62,0,0,1-5.276-1.495,6.873,6.873,0,0,1-2.638-4.265,13.652,13.652,0,0,1,.484-6.507l.264-.879a18.859,18.859,0,0,1,3.254-6.507,15.228,15.228,0,0,1,5.1-4.265,12.949,12.949,0,0,1,6.112-1.495,8.573,8.573,0,0,1,5.232,1.495,6.928,6.928,0,0,1,2.682,4.265,13.581,13.581,0,0,1-.44,6.507l-.264.879A21.153,21.153,0,0,1,1056.718,412.554Zm-2.638-12.663a2.7,2.7,0,0,0-2.814-1.8c-2.99,0-5.144,2.33-6.463,7.035l-.264.923c-.66,2.286-.792,4.045-.352,5.276a2.667,2.667,0,0,0,2.858,1.847,5.133,5.133,0,0,0,3.825-1.847,12.971,12.971,0,0,0,2.638-5.232l.264-.923C1054.387,402.837,1054.519,401.078,1054.08,399.891Z" transform="translate(-979.511 -392.9)"/>
      <path id="XMLID_137_" class="cls-1" d="M1101.9,418.354l-4.177-14.377-4.089,14.377H1087.3l7.035-24.754h6.331l4.133,14.377,4.089-14.377h6.331l-7.035,24.754Z" transform="translate(-1007.455 -393.292)"/>
      <path id="XMLID_139_" class="cls-1" d="M1143.8,418.354l7.035-24.754h6.287l-7.035,24.754Z" transform="translate(-1039.113 -393.292)"/>
      <path id="XMLID_141_" class="cls-1" d="M1185.034,418.41H1165.6l.923-3.3,16-16.268h-11.476l1.451-5.144h19.522l-.923,3.21-15.916,16.4h11.3Z" transform="translate(-1051.328 -393.348)"/>
      <path id="XMLID_143_" class="cls-1" d="M1227.315,398.744l-1.275,4.485h9.189l-1.407,4.924h-9.189l-1.451,5.1h10.9l-1.451,5.1H1215.4l7.035-24.754h17.279l-1.451,5.144h-10.948Z" transform="translate(-1079.232 -393.292)"/>
      <path id="XMLID_145_" class="cls-1" d="M1279.857,418.09l-.088.264h-6.815l-1.8-8.354h-2.946l-2.374,8.354H1259.5l7.035-24.754h9.981a10.655,10.655,0,0,1,4.749.879,4.817,4.817,0,0,1,2.55,2.55,6.446,6.446,0,0,1,0,4.089,10.371,10.371,0,0,1-2.374,4.485,11.654,11.654,0,0,1-3.913,2.682ZM1269.7,404.856h3.649a4.013,4.013,0,0,0,2.55-.791,4.483,4.483,0,0,0,1.451-2.286,2.531,2.531,0,0,0-.176-2.242,2.443,2.443,0,0,0-2.066-.791h-3.649Z" transform="translate(-1103.943 -393.292)"/>
    </g>
    <path id="XMLID_27_" class="cls-2" d="M778.454,407.327,776.3,416.6l-.616,2.682c-1.539,6.507-8.09,11.827-14.641,11.827H737.3l3.649-15.609,1.935-8.178c1.539-6.507,8.09-11.827,14.641-11.827H769.4C775.9,395.5,779.993,400.82,778.454,407.327Z" transform="translate(278.696 -795.311)"/>
    <path id="XMLID_20_" class="cls-3" d="M780.487,386.242l2.814-11.915c1.539-6.507,8.09-11.827,14.641-11.827h23.743L816.1,386.286c-1.539,6.507-8.09,11.827-14.641,11.827H789.588C783.037,398.114,778.948,392.794,780.487,386.242Z" transform="translate(254.679 -776.821)"/>
    <path id="XMLID_22_" class="cls-4" d="M802.527,407.327l-2.154,9.277H789.644c-6.507,0-10.6-5.32-9.057-11.827l2.2-9.277h10.728C799.976,395.5,804.065,400.82,802.527,407.327Z" transform="translate(254.623 -795.311)"/>
  </g>
</svg>
